<mxfile host="app.diagrams.net" agent="Mozilla/5.0 (Windows NT 10.0; Win64; x64) AppleWebKit/537.36 (KHTML, like Gecko) Chrome/127.0.0.0 Safari/537.36" version="24.7.6">
  <diagram name="Pagina-1" id="GDMDplwbG8eLtJfrRUqy">
    <mxGraphModel dx="2261" dy="746" grid="1" gridSize="10" guides="1" tooltips="1" connect="1" arrows="1" fold="1" page="1" pageScale="1" pageWidth="827" pageHeight="1169" math="0" shadow="0">
      <root>
        <mxCell id="0" />
        <mxCell id="1" parent="0" />
        <mxCell id="p4QJosKdRsqxHJbkzDdg-5" value="" style="rounded=0;whiteSpace=wrap;html=1;fillColor=#fff2cc;strokeColor=#d6b656;" vertex="1" parent="1">
          <mxGeometry x="-40" y="116" width="350" height="334" as="geometry" />
        </mxCell>
        <mxCell id="p4QJosKdRsqxHJbkzDdg-1" value="data_delivered" style="rounded=0;whiteSpace=wrap;html=1;" vertex="1" parent="1">
          <mxGeometry x="160" y="230" width="120" height="60" as="geometry" />
        </mxCell>
        <mxCell id="p4QJosKdRsqxHJbkzDdg-2" value="create_workflow" style="rounded=0;whiteSpace=wrap;html=1;" vertex="1" parent="1">
          <mxGeometry x="160" y="300" width="120" height="60" as="geometry" />
        </mxCell>
        <mxCell id="p4QJosKdRsqxHJbkzDdg-3" value="service_request" style="rounded=0;whiteSpace=wrap;html=1;" vertex="1" parent="1">
          <mxGeometry x="160" y="160" width="120" height="60" as="geometry" />
        </mxCell>
        <mxCell id="p4QJosKdRsqxHJbkzDdg-4" value="terminate_workflow" style="rounded=0;whiteSpace=wrap;html=1;" vertex="1" parent="1">
          <mxGeometry x="160" y="370" width="120" height="60" as="geometry" />
        </mxCell>
        <mxCell id="p4QJosKdRsqxHJbkzDdg-6" value="Rabbitmq" style="text;html=1;align=center;verticalAlign=middle;whiteSpace=wrap;rounded=0;fontStyle=1;fontSize=13;" vertex="1" parent="1">
          <mxGeometry x="189" y="116" width="60" height="30" as="geometry" />
        </mxCell>
        <mxCell id="p4QJosKdRsqxHJbkzDdg-7" value="" style="rounded=0;whiteSpace=wrap;html=1;fillColor=#dae8fc;strokeColor=#6c8ebf;" vertex="1" parent="1">
          <mxGeometry x="380" width="270" height="140" as="geometry" />
        </mxCell>
        <mxCell id="p4QJosKdRsqxHJbkzDdg-9" value="MinIO" style="text;html=1;align=center;verticalAlign=middle;whiteSpace=wrap;rounded=0;fontStyle=1;fontSize=13;" vertex="1" parent="1">
          <mxGeometry x="485" width="60" height="30" as="geometry" />
        </mxCell>
        <mxCell id="p4QJosKdRsqxHJbkzDdg-11" value="" style="rounded=0;whiteSpace=wrap;html=1;fillColor=#1ba1e2;fontColor=#ffffff;strokeColor=#006EAF;" vertex="1" parent="1">
          <mxGeometry x="710" y="360" width="250" height="140" as="geometry" />
        </mxCell>
        <mxCell id="p4QJosKdRsqxHJbkzDdg-12" value="STACFAST-API" style="text;html=1;align=center;verticalAlign=middle;whiteSpace=wrap;rounded=0;fontStyle=1;fontSize=13;" vertex="1" parent="1">
          <mxGeometry x="780" y="360" width="110" height="30" as="geometry" />
        </mxCell>
        <mxCell id="p4QJosKdRsqxHJbkzDdg-13" value="" style="rounded=0;whiteSpace=wrap;html=1;fillColor=#0050ef;fontColor=#ffffff;strokeColor=#001DBC;" vertex="1" parent="1">
          <mxGeometry x="710" y="540" width="250" height="140" as="geometry" />
        </mxCell>
        <mxCell id="p4QJosKdRsqxHJbkzDdg-14" value="PGSTAC ( DB STAC ITEMS )" style="text;html=1;align=center;verticalAlign=middle;whiteSpace=wrap;rounded=0;fontStyle=1;fontSize=13;" vertex="1" parent="1">
          <mxGeometry x="745" y="540" width="180" height="30" as="geometry" />
        </mxCell>
        <mxCell id="p4QJosKdRsqxHJbkzDdg-15" value="" style="rounded=0;whiteSpace=wrap;html=1;fillColor=#ffe6cc;strokeColor=#d79b00;" vertex="1" parent="1">
          <mxGeometry x="720" y="160" width="120" height="70" as="geometry" />
        </mxCell>
        <mxCell id="p4QJosKdRsqxHJbkzDdg-16" value="Dataloader" style="text;html=1;align=center;verticalAlign=middle;whiteSpace=wrap;rounded=0;fontStyle=1;fontSize=13;" vertex="1" parent="1">
          <mxGeometry x="730" y="160" width="110" height="30" as="geometry" />
        </mxCell>
        <mxCell id="p4QJosKdRsqxHJbkzDdg-18" value="" style="endArrow=classic;html=1;rounded=0;exitX=1;exitY=0.75;exitDx=0;exitDy=0;entryX=0.364;entryY=0;entryDx=0;entryDy=0;entryPerimeter=0;fillColor=#a20025;strokeColor=#6F0000;" edge="1" parent="1" source="p4QJosKdRsqxHJbkzDdg-1" target="p4QJosKdRsqxHJbkzDdg-16">
          <mxGeometry width="50" height="50" relative="1" as="geometry">
            <mxPoint x="720" y="410" as="sourcePoint" />
            <mxPoint x="770" y="360" as="targetPoint" />
            <Array as="points">
              <mxPoint x="700" y="130" />
            </Array>
          </mxGeometry>
        </mxCell>
        <mxCell id="p4QJosKdRsqxHJbkzDdg-20" value="" style="endArrow=classic;html=1;rounded=0;exitX=0.25;exitY=1;exitDx=0;exitDy=0;entryX=0.25;entryY=0;entryDx=0;entryDy=0;fillColor=#a20025;strokeColor=#6F0000;" edge="1" parent="1" source="p4QJosKdRsqxHJbkzDdg-15" target="p4QJosKdRsqxHJbkzDdg-11">
          <mxGeometry width="50" height="50" relative="1" as="geometry">
            <mxPoint x="740" y="270" as="sourcePoint" />
            <mxPoint x="770" y="360" as="targetPoint" />
            <Array as="points" />
          </mxGeometry>
        </mxCell>
        <mxCell id="p4QJosKdRsqxHJbkzDdg-22" value="" style="endArrow=classic;html=1;rounded=0;entryX=1;entryY=0.25;entryDx=0;entryDy=0;fillColor=#a20025;strokeColor=#6F0000;" edge="1" parent="1" target="p4QJosKdRsqxHJbkzDdg-1">
          <mxGeometry width="50" height="50" relative="1" as="geometry">
            <mxPoint x="510" y="140" as="sourcePoint" />
            <mxPoint x="550" y="264" as="targetPoint" />
          </mxGeometry>
        </mxCell>
        <mxCell id="p4QJosKdRsqxHJbkzDdg-24" value="2" style="text;html=1;align=center;verticalAlign=middle;whiteSpace=wrap;rounded=0;fontStyle=1;fontSize=13;fillColor=#a20025;fontColor=#ffffff;strokeColor=#6F0000;" vertex="1" parent="1">
          <mxGeometry x="560" y="170" width="60" height="20" as="geometry" />
        </mxCell>
        <mxCell id="p4QJosKdRsqxHJbkzDdg-25" value="3" style="text;html=1;align=center;verticalAlign=middle;whiteSpace=wrap;rounded=0;fontStyle=1;fontSize=13;fillColor=#a20025;fontColor=#ffffff;strokeColor=#6F0000;" vertex="1" parent="1">
          <mxGeometry x="700" y="260" width="60" height="20" as="geometry" />
        </mxCell>
        <mxCell id="p4QJosKdRsqxHJbkzDdg-26" value="1" style="text;html=1;align=center;verticalAlign=middle;whiteSpace=wrap;rounded=0;fontStyle=1;fontSize=13;fillColor=#a20025;fontColor=#ffffff;strokeColor=#6F0000;" vertex="1" parent="1">
          <mxGeometry x="390" y="160" width="60" height="20" as="geometry" />
        </mxCell>
        <mxCell id="p4QJosKdRsqxHJbkzDdg-27" value="" style="rounded=0;whiteSpace=wrap;html=1;fillColor=#d0cee2;strokeColor=#56517e;" vertex="1" parent="1">
          <mxGeometry x="129" y="540" width="120" height="70" as="geometry" />
        </mxCell>
        <mxCell id="p4QJosKdRsqxHJbkzDdg-28" value="Consumer data_delivered" style="text;html=1;align=center;verticalAlign=middle;whiteSpace=wrap;rounded=0;fontStyle=1;fontSize=13;" vertex="1" parent="1">
          <mxGeometry x="134" y="540" width="106" height="30" as="geometry" />
        </mxCell>
        <mxCell id="p4QJosKdRsqxHJbkzDdg-30" value="" style="rounded=0;whiteSpace=wrap;html=1;fillColor=#ffe6cc;strokeColor=#d79b00;" vertex="1" parent="1">
          <mxGeometry x="80" y="660" width="120" height="70" as="geometry" />
        </mxCell>
        <mxCell id="p4QJosKdRsqxHJbkzDdg-31" value="URL API ATTRAVERSE SELEZIONE" style="rounded=0;whiteSpace=wrap;html=1;fillColor=#f8cecc;strokeColor=#b85450;" vertex="1" parent="1">
          <mxGeometry x="485" y="590" width="120" height="70" as="geometry" />
        </mxCell>
        <mxCell id="p4QJosKdRsqxHJbkzDdg-32" value="DJANGO" style="text;html=1;align=center;verticalAlign=middle;whiteSpace=wrap;rounded=0;fontStyle=1;fontSize=13;" vertex="1" parent="1">
          <mxGeometry x="100" y="660" width="80" height="30" as="geometry" />
        </mxCell>
        <mxCell id="p4QJosKdRsqxHJbkzDdg-33" value="OPENEO-API-EXTERN" style="text;html=1;align=center;verticalAlign=middle;whiteSpace=wrap;rounded=0;fontStyle=1;fontSize=13;" vertex="1" parent="1">
          <mxGeometry x="490" y="650" width="110" height="30" as="geometry" />
        </mxCell>
        <mxCell id="p4QJosKdRsqxHJbkzDdg-34" value="" style="endArrow=classic;html=1;rounded=0;exitX=0.25;exitY=1;exitDx=0;exitDy=0;entryX=0.5;entryY=0;entryDx=0;entryDy=0;fillColor=#6a00ff;strokeColor=#3700CC;" edge="1" parent="1" source="p4QJosKdRsqxHJbkzDdg-27" target="p4QJosKdRsqxHJbkzDdg-32">
          <mxGeometry width="50" height="50" relative="1" as="geometry">
            <mxPoint x="210" y="410" as="sourcePoint" />
            <mxPoint x="260" y="360" as="targetPoint" />
          </mxGeometry>
        </mxCell>
        <mxCell id="p4QJosKdRsqxHJbkzDdg-36" value="&lt;span style=&quot;color: rgba(0, 0, 0, 0); font-family: monospace; font-size: 0px; text-align: start;&quot;&gt;%3CmxGraphModel%3E%3Croot%3E%3CmxCell%20id%3D%220%22%2F%3E%3CmxCell%20id%3D%221%22%20parent%3D%220%22%2F%3E%3CmxCell%20id%3D%222%22%20value%3D%223%22%20style%3D%22text%3Bhtml%3D1%3Balign%3Dcenter%3BverticalAlign%3Dmiddle%3BwhiteSpace%3Dwrap%3Brounded%3D0%3BfontStyle%3D1%3BfontSize%3D13%3B%22%20vertex%3D%221%22%20parent%3D%221%22%3E%3CmxGeometry%20x%3D%22570%22%20y%3D%22190%22%20width%3D%2260%22%20height%3D%2230%22%20as%3D%22geometry%22%2F%3E%3C%2FmxCell%3E%3C%2Froot%3E%3C%2FmxGraphModel%3E&lt;/span&gt;" style="text;html=1;align=center;verticalAlign=middle;resizable=0;points=[];autosize=1;strokeColor=none;fillColor=none;" vertex="1" parent="1">
          <mxGeometry x="50" y="528" width="20" height="30" as="geometry" />
        </mxCell>
        <mxCell id="p4QJosKdRsqxHJbkzDdg-38" value="2a" style="text;html=1;align=center;verticalAlign=middle;whiteSpace=wrap;rounded=0;fontStyle=1;fontSize=13;fillColor=#6a00ff;fontColor=#ffffff;strokeColor=#3700CC;" vertex="1" parent="1">
          <mxGeometry x="100" y="620" width="60" height="20" as="geometry" />
        </mxCell>
        <mxCell id="p4QJosKdRsqxHJbkzDdg-46" value="" style="endArrow=classic;html=1;rounded=0;exitX=1;exitY=0.75;exitDx=0;exitDy=0;entryX=0;entryY=0.5;entryDx=0;entryDy=0;fillColor=#e51400;strokeColor=#B20000;" edge="1" parent="1" source="p4QJosKdRsqxHJbkzDdg-3" target="p4QJosKdRsqxHJbkzDdg-47">
          <mxGeometry width="50" height="50" relative="1" as="geometry">
            <mxPoint x="370" y="220" as="sourcePoint" />
            <mxPoint x="350" y="340" as="targetPoint" />
            <Array as="points">
              <mxPoint x="370" y="330" />
              <mxPoint x="330" y="520" />
            </Array>
          </mxGeometry>
        </mxCell>
        <mxCell id="p4QJosKdRsqxHJbkzDdg-47" value="" style="rounded=0;whiteSpace=wrap;html=1;fillColor=#d5e8d4;strokeColor=#82b366;" vertex="1" parent="1">
          <mxGeometry x="467" y="540" width="120" height="70" as="geometry" />
        </mxCell>
        <mxCell id="p4QJosKdRsqxHJbkzDdg-48" value="Consumer service_request" style="text;html=1;align=center;verticalAlign=middle;whiteSpace=wrap;rounded=0;fontStyle=1;fontSize=13;" vertex="1" parent="1">
          <mxGeometry x="467" y="540" width="106" height="30" as="geometry" />
        </mxCell>
        <mxCell id="p4QJosKdRsqxHJbkzDdg-50" value="1" style="text;html=1;align=center;verticalAlign=middle;whiteSpace=wrap;rounded=0;fontStyle=1;fontSize=13;fillColor=#e51400;fontColor=#ffffff;strokeColor=#B20000;" vertex="1" parent="1">
          <mxGeometry x="314" y="450" width="60" height="20" as="geometry" />
        </mxCell>
        <mxCell id="p4QJosKdRsqxHJbkzDdg-55" value="1" style="text;html=1;align=center;verticalAlign=middle;whiteSpace=wrap;rounded=0;fontStyle=1;fontSize=13;fillColor=#d80073;fontColor=#ffffff;strokeColor=#A50040;" vertex="1" parent="1">
          <mxGeometry x="40" y="136" width="60" height="24" as="geometry" />
        </mxCell>
        <mxCell id="p4QJosKdRsqxHJbkzDdg-61" value="" style="rounded=0;whiteSpace=wrap;html=1;fillColor=#fff2cc;strokeColor=#d6b656;" vertex="1" parent="1">
          <mxGeometry x="-60" y="670" width="120" height="70" as="geometry" />
        </mxCell>
        <mxCell id="p4QJosKdRsqxHJbkzDdg-62" value="anomaly detection" style="text;html=1;align=center;verticalAlign=middle;whiteSpace=wrap;rounded=0;fontStyle=1;fontSize=13;" vertex="1" parent="1">
          <mxGeometry x="-40" y="670" width="80" height="30" as="geometry" />
        </mxCell>
        <mxCell id="p4QJosKdRsqxHJbkzDdg-63" value="1" style="text;html=1;align=center;verticalAlign=middle;whiteSpace=wrap;rounded=0;fontStyle=1;fontSize=13;" vertex="1" parent="1">
          <mxGeometry x="-230" y="430" width="60" height="20" as="geometry" />
        </mxCell>
        <mxCell id="p4QJosKdRsqxHJbkzDdg-65" value="Rabbit reso configurabile ma unico URL&lt;div&gt;&lt;br&gt;&lt;br&gt;TIFF e Metadata possono arrivare asincroni&amp;nbsp;&lt;/div&gt;&lt;div&gt;Mi attivo solo METADATA&lt;/div&gt;&lt;div&gt;USARE le code di supporto all&#39;errore&lt;/div&gt;&lt;div&gt;&lt;br&gt;&lt;/div&gt;&lt;div&gt;&lt;br&gt;&lt;/div&gt;&lt;div&gt;&lt;br&gt;&lt;/div&gt;&lt;div&gt;&lt;br&gt;&lt;/div&gt;&lt;div&gt;&amp;nbsp;&lt;/div&gt;" style="text;html=1;align=center;verticalAlign=middle;whiteSpace=wrap;rounded=0;" vertex="1" parent="1">
          <mxGeometry x="1080" y="10" width="290" height="270" as="geometry" />
        </mxCell>
        <mxCell id="p4QJosKdRsqxHJbkzDdg-72" value="1" style="text;html=1;align=center;verticalAlign=middle;whiteSpace=wrap;rounded=0;fontStyle=1;fontSize=13;fillColor=#e3c800;fontColor=#000000;strokeColor=#B09500;" vertex="1" parent="1">
          <mxGeometry x="374" y="410" width="56" height="20" as="geometry" />
        </mxCell>
        <mxCell id="p4QJosKdRsqxHJbkzDdg-68" value="" style="endArrow=classic;html=1;rounded=0;exitX=1;exitY=0.5;exitDx=0;exitDy=0;entryX=0.5;entryY=1;entryDx=0;entryDy=0;fillColor=#e3c800;strokeColor=#B09500;strokeWidth=8;" edge="1" parent="1" source="p4QJosKdRsqxHJbkzDdg-30" target="p4QJosKdRsqxHJbkzDdg-2">
          <mxGeometry width="50" height="50" relative="1" as="geometry">
            <mxPoint x="680" y="630" as="sourcePoint" />
            <mxPoint x="730" y="580" as="targetPoint" />
          </mxGeometry>
        </mxCell>
        <mxCell id="p4QJosKdRsqxHJbkzDdg-73" value="data_catalog" style="rounded=0;whiteSpace=wrap;html=1;" vertex="1" parent="1">
          <mxGeometry x="160" y="438" width="120" height="60" as="geometry" />
        </mxCell>
        <mxCell id="p4QJosKdRsqxHJbkzDdg-74" value="" style="endArrow=classic;html=1;rounded=0;exitX=0;exitY=0.5;exitDx=0;exitDy=0;fillColor=#6a00ff;strokeColor=#3700CC;" edge="1" parent="1" source="p4QJosKdRsqxHJbkzDdg-73" target="p4QJosKdRsqxHJbkzDdg-28">
          <mxGeometry width="50" height="50" relative="1" as="geometry">
            <mxPoint x="160" y="468" as="sourcePoint" />
            <mxPoint x="161" y="540" as="targetPoint" />
            <Array as="points">
              <mxPoint x="120" y="480" />
            </Array>
          </mxGeometry>
        </mxCell>
        <mxCell id="p4QJosKdRsqxHJbkzDdg-37" value="1" style="text;html=1;align=center;verticalAlign=middle;whiteSpace=wrap;rounded=0;fontStyle=1;fontSize=13;fillColor=#6a00ff;fontColor=#ffffff;strokeColor=#3700CC;" vertex="1" parent="1">
          <mxGeometry x="83" y="456" width="60" height="20" as="geometry" />
        </mxCell>
        <mxCell id="p4QJosKdRsqxHJbkzDdg-75" value="" style="endArrow=classic;html=1;rounded=0;exitX=0;exitY=0.5;exitDx=0;exitDy=0;entryX=1;entryY=0.5;entryDx=0;entryDy=0;fillColor=#a20025;strokeColor=#6F0000;" edge="1" parent="1" source="p4QJosKdRsqxHJbkzDdg-15" target="p4QJosKdRsqxHJbkzDdg-73">
          <mxGeometry width="50" height="50" relative="1" as="geometry">
            <mxPoint x="760" y="240" as="sourcePoint" />
            <mxPoint x="783" y="370" as="targetPoint" />
            <Array as="points">
              <mxPoint x="490" y="270" />
            </Array>
          </mxGeometry>
        </mxCell>
        <mxCell id="p4QJosKdRsqxHJbkzDdg-76" value="4a" style="text;html=1;align=center;verticalAlign=middle;whiteSpace=wrap;rounded=0;fontStyle=1;fontSize=13;fillColor=#a20025;fontColor=#ffffff;strokeColor=#6F0000;" vertex="1" parent="1">
          <mxGeometry x="580" y="230" width="60" height="20" as="geometry" />
        </mxCell>
        <mxCell id="p4QJosKdRsqxHJbkzDdg-77" value="4a rosso scuro se tutto è andato bene" style="text;html=1;align=center;verticalAlign=middle;whiteSpace=wrap;rounded=0;" vertex="1" parent="1">
          <mxGeometry x="780" y="100" width="270" height="30" as="geometry" />
        </mxCell>
        <mxCell id="p4QJosKdRsqxHJbkzDdg-78" value="status" style="rounded=0;whiteSpace=wrap;html=1;" vertex="1" parent="1">
          <mxGeometry x="-10" y="370" width="120" height="60" as="geometry" />
        </mxCell>
        <mxCell id="p4QJosKdRsqxHJbkzDdg-79" value="" style="endArrow=classic;html=1;rounded=0;exitX=0.5;exitY=1;exitDx=0;exitDy=0;entryX=0;entryY=0.25;entryDx=0;entryDy=0;" edge="1" parent="1" source="p4QJosKdRsqxHJbkzDdg-78" target="p4QJosKdRsqxHJbkzDdg-27">
          <mxGeometry width="50" height="50" relative="1" as="geometry">
            <mxPoint x="-30" y="510" as="sourcePoint" />
            <mxPoint y="558" as="targetPoint" />
          </mxGeometry>
        </mxCell>
        <mxCell id="p4QJosKdRsqxHJbkzDdg-80" value="" style="endArrow=classic;html=1;rounded=0;exitX=0;exitY=0.25;exitDx=0;exitDy=0;entryX=0.25;entryY=0;entryDx=0;entryDy=0;fillColor=#a20025;strokeColor=#6F0000;" edge="1" parent="1" source="p4QJosKdRsqxHJbkzDdg-15" target="p4QJosKdRsqxHJbkzDdg-78">
          <mxGeometry width="50" height="50" relative="1" as="geometry">
            <mxPoint x="320" y="430" as="sourcePoint" />
            <mxPoint x="370" y="380" as="targetPoint" />
          </mxGeometry>
        </mxCell>
        <mxCell id="p4QJosKdRsqxHJbkzDdg-81" value="4b" style="text;html=1;align=center;verticalAlign=middle;whiteSpace=wrap;rounded=0;fontStyle=1;fontSize=13;fillColor=#a20025;fontColor=#ffffff;strokeColor=#6F0000;" vertex="1" parent="1">
          <mxGeometry x="497" y="210" width="60" height="20" as="geometry" />
        </mxCell>
        <mxCell id="p4QJosKdRsqxHJbkzDdg-82" value="" style="endArrow=classic;html=1;rounded=0;exitX=0;exitY=0;exitDx=0;exitDy=0;entryX=0;entryY=0.5;entryDx=0;entryDy=0;fillColor=#b0e3e6;strokeColor=#0e8088;" edge="1" parent="1" source="p4QJosKdRsqxHJbkzDdg-32" target="p4QJosKdRsqxHJbkzDdg-4">
          <mxGeometry width="50" height="50" relative="1" as="geometry">
            <mxPoint x="320" y="430" as="sourcePoint" />
            <mxPoint x="370" y="380" as="targetPoint" />
            <Array as="points">
              <mxPoint x="-70" y="550" />
            </Array>
          </mxGeometry>
        </mxCell>
        <mxCell id="p4QJosKdRsqxHJbkzDdg-83" value="Se tutto è finito mandi a Terminate&lt;br&gt;Braint" style="text;html=1;align=center;verticalAlign=middle;whiteSpace=wrap;rounded=0;fillColor=#b0e3e6;strokeColor=#0e8088;" vertex="1" parent="1">
          <mxGeometry x="-240" y="570" width="230" height="30" as="geometry" />
        </mxCell>
        <mxCell id="p4QJosKdRsqxHJbkzDdg-84" value="" style="endArrow=classic;html=1;rounded=0;exitX=1;exitY=0.25;exitDx=0;exitDy=0;strokeWidth=5;fillColor=#e3c800;strokeColor=#B09500;entryX=0.25;entryY=1;entryDx=0;entryDy=0;" edge="1" parent="1" source="p4QJosKdRsqxHJbkzDdg-30" target="p4QJosKdRsqxHJbkzDdg-3">
          <mxGeometry width="50" height="50" relative="1" as="geometry">
            <mxPoint x="320" y="530" as="sourcePoint" />
            <mxPoint x="370" y="480" as="targetPoint" />
          </mxGeometry>
        </mxCell>
        <mxCell id="p4QJosKdRsqxHJbkzDdg-87" value="anomalies" style="rounded=0;whiteSpace=wrap;html=1;" vertex="1" parent="1">
          <mxGeometry x="-10" y="253" width="120" height="60" as="geometry" />
        </mxCell>
        <mxCell id="p4QJosKdRsqxHJbkzDdg-88" value="" style="endArrow=classic;html=1;rounded=0;exitX=0;exitY=0;exitDx=0;exitDy=0;strokeWidth=5;fillColor=#008a00;strokeColor=#005700;" edge="1" parent="1" source="p4QJosKdRsqxHJbkzDdg-28" target="p4QJosKdRsqxHJbkzDdg-87">
          <mxGeometry width="50" height="50" relative="1" as="geometry">
            <mxPoint x="320" y="430" as="sourcePoint" />
            <mxPoint x="370" y="380" as="targetPoint" />
          </mxGeometry>
        </mxCell>
        <mxCell id="p4QJosKdRsqxHJbkzDdg-89" value="" style="endArrow=classic;html=1;rounded=0;exitX=0.25;exitY=1;exitDx=0;exitDy=0;entryX=0.75;entryY=0;entryDx=0;entryDy=0;strokeWidth=5;fillColor=#008a00;strokeColor=#005700;" edge="1" parent="1" source="p4QJosKdRsqxHJbkzDdg-87" target="p4QJosKdRsqxHJbkzDdg-62">
          <mxGeometry width="50" height="50" relative="1" as="geometry">
            <mxPoint x="320" y="430" as="sourcePoint" />
            <mxPoint x="370" y="380" as="targetPoint" />
          </mxGeometry>
        </mxCell>
      </root>
    </mxGraphModel>
  </diagram>
</mxfile>
